<svg xmlns="http://www.w3.org/2000/svg" xmlns:xlink="http://www.w3.org/1999/xlink" width="390" height="390" viewBox="0 0 390 390" fill="none">
<path d="M345 0L45 0C20.1472 0 0 20.1472 0 45L0 345C0 369.853 20.1472 390 45 390L345 390C369.853 390 390 369.853 390 345L390 45C390 20.1472 369.853 0 345 0ZM150 30L60 30L60 60L30 60L30 150L60 150L60 180L150 180L150 150L180 150L180 90L120 90L120 120L150 120L150 150L60 150L60 60L150 60L150 30ZM210 30L360 30L360 60L300 60L300 180L270 180L270 60L210 60L210 30ZM30 360L30 210L60 210L60 240L90 240L90 270L60 270L60 360L30 360ZM120 270L120 360L90 360L90 270L120 270ZM120 270L120 240L150 240L150 210L180 210L180 360L150 360L150 270L120 270ZM330 210L240 210L240 240L210 240L210 330L240 330L240 360L330 360L330 330L360 330L360 300L330 300L330 330L240 330L240 240L330 240L330 210Z" fill-rule="evenodd"  fill="#000000" >
</path>
</svg>
