<svg xmlns="http://www.w3.org/2000/svg" xmlns:xlink="http://www.w3.org/1999/xlink" width="670" height="150" viewBox="0 0 670 150" fill="none">
<path d="M45 0L135 0L135 30L45 30L45 0ZM45 120L45 30L15 30L15 120L45 120ZM135 120L45 120L45 150L135 150L135 120ZM135 120L135 90L105 90L105 60L165 60L165 120L135 120Z" fill-rule="evenodd"  fill="#000000" >
</path>
<path d="M240 0L180 0L180 30L240 30L240 150L270 150L270 30L330 30L330 0L240 0Z" fill-rule="evenodd"  fill="#000000" >
</path>
<path d="M380 0L350 0L350 150L380 150L380 60L410 60L410 150L440 150L440 60L470 60L470 150L500 150L500 0L470 0L470 30L440 30L440 60L410 60L410 30L380 30L380 0Z" fill-rule="evenodd"  fill="#000000" >
</path>
<path d="M550 0L640 0L640 30L550 30L550 0ZM550 120L550 30L520 30L520 120L550 120ZM640 120L640 150L550 150L550 120L640 120ZM640 120L640 90L670 90L670 120L640 120Z" fill-rule="evenodd"  fill="#000000" >
</path>
</svg>
