<svg xmlns="http://www.w3.org/2000/svg" xmlns:xlink="http://www.w3.org/1999/xlink" width="390" height="390" viewBox="0 0 390 390" fill="none">
<path     fill="#000000"  d="M0 360L0 30C0 13.4315 13.4315 0 30 0L360 0C376.569 0 390 13.4315 390 30L390 360C390 376.569 376.569 390 360 390L30 390C13.4315 390 0 376.569 0 360Z">
</path>
<rect x="30" y="90" width="30" height="30"   fill="#FFFFFF" >
</rect>
<rect x="60" y="30" width="30" height="30"   fill="#FFFFFF" >
</rect>
<rect x="30" y="60" width="30" height="30"   fill="#FFFFFF" >
</rect>
<rect x="30" y="120" width="30" height="30"   fill="#FFFFFF" >
</rect>
<rect x="60" y="150" width="30" height="30"   fill="#FFFFFF" >
</rect>
<rect x="90" y="30" width="30" height="30"   fill="#FFFFFF" >
</rect>
<rect x="120" y="90" width="30" height="30"   fill="#FFFFFF" >
</rect>
<rect x="120" y="30" width="30" height="30"   fill="#FFFFFF" >
</rect>
<rect x="150" y="90" width="30" height="30"   fill="#FFFFFF" >
</rect>
<rect x="90" y="150" width="30" height="30"   fill="#FFFFFF" >
</rect>
<rect x="150" y="120" width="30" height="30"   fill="#FFFFFF" >
</rect>
<rect x="120" y="150" width="30" height="30"   fill="#FFFFFF" >
</rect>
<rect x="240" y="30" width="30" height="30"   fill="#FFFFFF" >
</rect>
<rect x="210" y="30" width="30" height="30"   fill="#FFFFFF" >
</rect>
<rect x="330" y="30" width="30" height="30"   fill="#FFFFFF" >
</rect>
<rect x="270" y="30" width="30" height="30"   fill="#FFFFFF" >
</rect>
<rect x="270" y="90" width="30" height="30"   fill="#FFFFFF" >
</rect>
<rect x="300" y="30" width="30" height="30"   fill="#FFFFFF" >
</rect>
<rect x="270" y="60" width="30" height="30"   fill="#FFFFFF" >
</rect>
<rect x="270" y="150" width="30" height="30"   fill="#FFFFFF" >
</rect>
<rect x="270" y="120" width="30" height="30"   fill="#FFFFFF" >
</rect>
<rect x="30" y="210" width="30" height="30"   fill="#FFFFFF" >
</rect>
<rect x="30" y="270" width="30" height="30"   fill="#FFFFFF" >
</rect>
<rect x="60" y="240" width="30" height="30"   fill="#FFFFFF" >
</rect>
<rect x="30" y="240" width="30" height="30"   fill="#FFFFFF" >
</rect>
<rect x="30" y="330" width="30" height="30"   fill="#FFFFFF" >
</rect>
<rect x="30" y="300" width="30" height="30"   fill="#FFFFFF" >
</rect>
<rect x="150" y="210" width="30" height="30"   fill="#FFFFFF" >
</rect>
<rect x="150" y="270" width="30" height="30"   fill="#FFFFFF" >
</rect>
<rect x="150" y="240" width="30" height="30"   fill="#FFFFFF" >
</rect>
<rect x="150" y="330" width="30" height="30"   fill="#FFFFFF" >
</rect>
<rect x="150" y="300" width="30" height="30"   fill="#FFFFFF" >
</rect>
<rect x="90" y="270" width="30" height="30"   fill="#FFFFFF" >
</rect>
<rect x="120" y="240" width="30" height="30"   fill="#FFFFFF" >
</rect>
<rect x="90" y="330" width="30" height="30"   fill="#FFFFFF" >
</rect>
<rect x="90" y="300" width="30" height="30"   fill="#FFFFFF" >
</rect>
<rect x="210" y="270" width="30" height="30"   fill="#FFFFFF" >
</rect>
<rect x="240" y="210" width="30" height="30"   fill="#FFFFFF" >
</rect>
<rect x="210" y="240" width="30" height="30"   fill="#FFFFFF" >
</rect>
<rect x="210" y="300" width="30" height="30"   fill="#FFFFFF" >
</rect>
<rect x="240" y="330" width="30" height="30"   fill="#FFFFFF" >
</rect>
<rect x="270" y="210" width="30" height="30"   fill="#FFFFFF" >
</rect>
<rect x="300" y="210" width="30" height="30"   fill="#FFFFFF" >
</rect>
<rect x="270" y="330" width="30" height="30"   fill="#FFFFFF" >
</rect>
<rect x="300" y="330" width="30" height="30"   fill="#FFFFFF" >
</rect>
<rect x="330" y="300" width="30" height="30"   fill="#FFFFFF" >
</rect>
</svg>
